<?xml version="1.0" standalone="no"?>
<!DOCTYPE svg PUBLIC "-//W3C//DTD SVG 20010904//EN"
 "http://www.w3.org/TR/2001/REC-SVG-20010904/DTD/svg10.dtd">
<svg version="1.0" xmlns="http://www.w3.org/2000/svg"
 width="980.000000pt" height="980.000000pt" viewBox="0 0 980.000000 980.000000"
 preserveAspectRatio="xMidYMid meet">
<metadata>
Created by potrace 1.14, written by Peter Selinger 2001-2017
</metadata>
<g transform="translate(0.000000,980.000000) scale(0.100000,-0.100000)"
fill="#F0FFFF" stroke="none">
<path d="M4855 9536 c-108 -25 -174 -61 -386 -212 -463 -328 -1224 -937 -1559
-1248 -115 -107 -163 -137 -326 -205 -76 -32 -254 -110 -395 -174 -561 -255
-1017 -422 -1569 -577 -429 -120 -525 -159 -593 -239 -25 -31 -27 -38 -27
-134 0 -167 50 -399 144 -674 93 -271 177 -432 401 -768 287 -431 423 -594
849 -1021 304 -303 495 -479 646 -594 234 -177 560 -364 740 -423 129 -42 206
-44 254 -6 55 43 75 109 106 349 24 183 65 392 114 580 99 384 328 1071 466
1401 100 240 281 563 330 589 11 6 82 24 157 41 74 16 140 32 145 35 16 10 79
-69 248 -312 365 -526 568 -778 1195 -1479 992 -1109 1156 -1307 1429 -1722
131 -198 243 -399 391 -698 153 -311 256 -549 385 -895 152 -405 242 -575 375
-706 79 -78 173 -132 280 -159 135 -35 420 -42 590 -14 33 6 96 28 140 50 194
95 351 279 400 464 20 77 20 274 0 391 -103 601 -549 1574 -1120 2439 -262
398 -464 649 -1176 1465 -519 594 -634 737 -781 973 -82 131 -222 414 -301
607 -30 74 -106 259 -167 410 -62 151 -135 323 -162 381 l-50 106 62 94 c198
300 194 386 -26 699 -332 474 -870 1108 -991 1169 -55 28 -142 34 -218 17z
m139 -367 c133 -119 791 -942 880 -1102 46 -81 45 -87 -26 -194 -124 -185
-266 -303 -1200 -1005 -200 -150 -382 -283 -404 -295 -23 -13 -95 -33 -161
-47 -152 -30 -183 -45 -264 -126 -192 -194 -405 -641 -638 -1340 -155 -465
-284 -932 -336 -1215 -30 -169 -45 -235 -53 -235 -13 0 -221 115 -320 177
-575 358 -1285 1098 -1725 1798 -112 178 -266 488 -313 629 -20 60 -58 195
-84 300 l-49 191 222 56 c649 166 1054 310 1807 644 362 160 401 177 515 221
85 32 134 69 290 214 472 439 1689 1380 1785 1380 9 0 42 -23 74 -51z m976
-2304 c65 -165 136 -343 158 -395 220 -516 442 -842 1021 -1500 802 -910 955
-1100 1256 -1554 754 -1141 1205 -2281 1040 -2630 -40 -84 -167 -173 -280
-196 -81 -17 -323 -15 -412 4 -91 19 -139 44 -190 99 -58 63 -105 163 -213
447 -259 687 -435 1078 -680 1505 -287 500 -492 759 -1455 1840 -669 752 -811
918 -1012 1182 -182 239 -472 664 -526 768 l-15 30 561 427 561 427 34 -77
c19 -42 87 -212 152 -377z"/>
</g>
</svg>
